<?xml version="1.0" encoding="UTF-8" standalone="no"?>
<!-- Generator: Adobe Illustrator 13.0.0, SVG Export Plug-In  -->

<svg
   xmlns:dc="http://purl.org/dc/elements/1.1/"
   xmlns:cc="http://creativecommons.org/ns#"
   xmlns:rdf="http://www.w3.org/1999/02/22-rdf-syntax-ns#"
   xmlns:svg="http://www.w3.org/2000/svg"
   xmlns="http://www.w3.org/2000/svg"
   xmlns:sodipodi="http://sodipodi.sourceforge.net/DTD/sodipodi-0.dtd"
   xmlns:inkscape="http://www.inkscape.org/namespaces/inkscape"
   version="1.1"
   x="0px"
   y="0px"
   width="576.53827"
   height="507.94376"
   viewBox="-0.781 -0.08 576.53826 507.94375"
   enable-background="new -0.781 -0.08 576 506"
   xml:space="preserve"
   id="svg2"
   inkscape:version="0.92.4 (5da689c313, 2019-01-14)"
   sodipodi:docname="bigloo.svg"><metadata
   id="metadata18"><rdf:RDF><cc:Work
       rdf:about=""><dc:format>image/svg+xml</dc:format><dc:type
         rdf:resource="http://purl.org/dc/dcmitype/StillImage" /><dc:title /></cc:Work></rdf:RDF></metadata><sodipodi:namedview
   pagecolor="#ffffff"
   bordercolor="#666666"
   borderopacity="1"
   objecttolerance="10"
   gridtolerance="10"
   guidetolerance="10"
   inkscape:pageopacity="0"
   inkscape:pageshadow="2"
   inkscape:window-width="2560"
   inkscape:window-height="1418"
   id="namedview16"
   showgrid="false"
   fit-margin-top="0.3"
   fit-margin-left="0.3"
   fit-margin-right="0.3"
   fit-margin-bottom="0.3"
   inkscape:zoom="1.8481171"
   inkscape:cx="442.04146"
   inkscape:cy="228.82991"
   inkscape:window-x="0"
   inkscape:window-y="0"
   inkscape:window-maximized="1"
   inkscape:current-layer="svg2"
   showguides="true"
   inkscape:guide-bbox="true" />
<defs
   id="defs4">
</defs>





<path
   inkscape:connector-curvature="0"
   d="M 4.6642489,460.12075 260.66925,16.707756 c 5.531,-9.58 15.753,-15.4819999 26.815,-15.4819999 11.063,0 21.284,5.9019999 26.815,15.4819999 L 570.30424,460.12075 c 5.531,9.58 5.531,21.384 0,30.964 -5.53,9.58 -15.753,15.482 -26.815,15.482 H 31.479249 c -11.062,0 -21.284,-5.902 -26.8150001,-15.482 -5.53099996,-9.58 -5.53099996,-21.384 0,-30.964 z"
   id="path6"
   style="fill:#ffffff;stroke:#000000;stroke-width:2;stroke-linecap:round;stroke-linejoin:round;stroke-miterlimit:4;stroke-opacity:1;stroke-dasharray:none" /><path
   inkscape:connector-curvature="0"
   d="M 31.389249,494.18175 H 543.58024 c 6.618,0 12.734,-3.531 16.044,-9.264 3.31,-5.731 3.31,-12.794 0,-18.525 L 303.52825,22.822756 c -3.31,-5.732 -9.425,-9.263 -16.044,-9.263 -6.619,0 -12.734,3.531 -16.043,9.263 L 15.345249,466.39275 c -3.31,5.731 -3.31,12.794 0,18.525 3.309,5.733 9.425,9.264 16.044,9.264 z"
   id="path8"
   style="fill:#f91a0e;stroke:none" /><polygon
   transform="translate(0.42724901,1.1377561)"
   points="510.884,455.888 63.23,455.888 287.058,68.208 "
   id="polygon10"
   style="fill:#ffffff;stroke:none" /><polygon
   transform="translate(0.42724901,1.1377561)"
   points="328.764,301.068 287.653,286.324 292.989,266.671 320.704,277.771 "
   id="polygon22"
   style="fill:#ffffff;stroke:none" /><polygon
   transform="translate(0.42724901,1.1377561)"
   points="263.552,257.064 289.602,265.454 283.977,284.88 242.688,270.557 244.022,266.234 "
   id="polygon24"
   style="fill:#ffffff;stroke:none" /><path
   inkscape:connector-curvature="0"
   id="path6-3"
   d="m 365.8773,399.16905 c -0.72135,1.90036 -1.44269,3.71809 -2.24419,5.4532 -0.24045,0.49574 -0.48089,0.90886 -0.80149,1.32199 -4.24793,6.27943 -10.90034,10.24539 -18.2741,10.98901 v -13.46774 h 5.53032 c 1.04195,-2.80922 3.20598,-4.87483 6.01122,-5.78369 0.1603,-0.0826 0.32059,-0.16525 0.48089,-0.3305 0.56105,-0.41312 1.04195,-1.07411 1.1221,-1.90035 h 0.0802 c 0.72134,-6.19682 1.76329,-12.72413 2.96553,-19.33406 l 0.24045,-0.90886 c 0.24045,-1.32199 -0.6412,-2.64398 -1.92359,-2.80923 -3.76703,-0.49574 -7.37376,-1.23936 -10.98049,-2.23085 -4.96927,-0.16525 -9.93854,-1.07411 -14.74751,-2.7266 -1.52284,-0.57837 -3.04568,-1.15673 -4.56852,-1.81773 -1.04195,-0.49574 -2.08389,-1.15674 -3.04569,-1.81773 -1.20224,1.07411 -2.56478,1.90036 -3.84717,2.7266 -0.1603,0.0826 -0.3206,0.24787 -0.40075,0.33049 -1.1221,1.23937 -2.00374,2.56135 -2.72509,4.04859 -1.52284,3.05709 -2.88538,5.78369 -4.48837,8.51029 v -0.0826 c -7.69436,12.39363 -13.94602,25.6135 -18.75499,39.32911 -0.3206,0.82624 -0.4809,1.81773 -0.4809,2.64397 0,1.40461 0.40075,2.7266 1.04194,3.88334 0.0802,0.0826 0.1603,0.24787 0.3206,0.33049 3.36628,3.80071 5.93107,8.34504 7.61421,13.30249 l -14.50707,0.16525 -0.1603,-2.80922 c -0.0802,-0.41312 -0.0802,-0.74362 -0.1603,-1.07411 0,-2.23086 -0.80149,-4.46171 -2.16403,-6.19682 -0.3206,-0.33049 -0.6412,-0.74361 -1.04195,-0.99149 -1.52284,-0.99149 -2.48463,-2.80922 -2.48463,-4.70957 0,-0.74362 0.1603,-1.48724 0.40075,-2.14823 0,-0.0826 0.0801,-0.16525 0.0801,-0.16525 1.1221,-2.14823 2.24419,-4.54433 3.36629,-7.02305 1.68314,-3.71809 2.72508,-7.68405 3.20598,-11.73264 0.0802,-0.41312 0.0802,-0.74361 0.1603,-1.07411 0.64119,-3.05709 1.36254,-6.11419 2.24418,-9.17128 0.4809,-1.98298 1.04195,-4.21384 1.68314,-6.44469 0.88165,-3.96596 1.68314,-7.76667 2.32434,-11.56738 0.56105,-3.71809 1.20224,-7.10568 1.84344,-10.49327 -6.49211,0.99149 -13.06438,1.48723 -19.47634,1.48723 -7.53405,0 -14.98796,-0.66099 -22.36172,-2.0656 -2.40448,-0.41312 -4.80897,-0.90887 -7.13331,-1.40461 -1.36254,6.36206 -2.48463,11.23689 -3.68688,16.11171 l 0.1603,-0.57837 c -1.28239,4.46171 -2.72508,8.84079 -4.40822,12.972 -0.24045,0.66099 -0.40075,1.40461 -0.40075,2.14823 0,0.74361 0.1603,1.48723 0.40075,2.14822 1.20224,3.22235 2.80523,6.36206 4.64867,9.33653 2.56479,4.04859 5.37002,8.09717 8.33555,11.89788 2.80524,3.3876 5.12957,6.85781 7.21346,10.5759 0.0802,0.16525 0.0802,0.24787 0.1603,0.33049 2.96553,3.80072 5.45017,8.01455 7.37376,12.55888 l -15.30856,0.24787 -0.4809,-5.78369 -0.1603,-1.40461 c -0.0802,-0.16525 -0.0802,-0.3305 -0.1603,-0.41312 -0.0802,-0.16525 -0.24045,-0.24788 -0.4809,-0.3305 -0.0802,0 -0.0802,0 -0.1603,-0.0826 h -0.0801 c -0.3206,-0.0826 -0.6412,-0.24788 -0.88165,-0.41312 -1.28239,-0.82625 -2.16404,-1.98298 -2.56478,-3.3876 -0.24045,-0.41312 -0.3206,-0.66099 -0.40075,-0.90886 -1.68314,-4.21383 -3.84718,-8.26242 -6.41197,-12.14575 -4.72882,-6.69256 -10.41943,-12.55888 -16.91155,-17.4337 l -0.0802,-0.0826 c -1.28239,-0.82624 -2.00374,-2.3961 -2.00374,-3.96596 v -0.90886 c 0.40075,-2.31348 0.88165,-4.95745 1.4427,-7.5188 v -0.16525 l 0.48089,-2.97447 c 0.56105,-6.94043 -2.48463,-13.63299 -8.01495,-17.68157 -1.76329,2.64397 -3.68688,5.1227 -5.85092,7.43617 l 0.0802,-0.0826 c -1.68314,1.73511 -3.36628,3.30497 -5.20972,4.7922 -3.04568,2.23085 -5.85091,4.46171 -8.576,6.85781 -2.00374,1.7351 -3.92732,3.55284 -5.77076,5.45319 -1.1221,1.15674 -2.16404,2.23085 -3.12584,3.30497 l -0.16029,0.16525 c -1.20225,1.7351 -2.24419,3.47021 -3.12584,5.37057 l -0.32059,0.74361 c -0.6412,1.40462 -1.20225,2.80923 -1.68314,4.13121 -0.8015,2.3961 -1.52285,4.7922 -2.16404,7.10568 l -0.72135,2.14823 c -1.04194,3.71809 -2.08389,7.35355 -3.04568,10.98901 -0.0801,0.24788 -0.1603,0.99149 -0.1603,1.73511 0,1.56986 0.40075,3.0571 1.20224,4.37908 2.40449,3.22234 4.32808,6.77518 5.69062,10.65852 l -14.26662,0.16525 -0.0802,-6.60994 v -0.0826 -0.16525 c 0.0802,-0.49574 -0.1603,-0.90886 -0.48089,-1.15674 h -0.0802 c -0.9618,-0.49574 -1.84344,-1.32198 -2.48464,-2.23085 -0.4809,-0.82624 -0.72134,-1.65248 -0.72134,-2.56135 0,-0.49574 0.0802,-0.99149 0.16029,-1.48723 1.92359,-6.36206 4.08763,-14.12874 6.25167,-21.89541 l 0.3206,-1.07411 2.08388,-7.10568 c 1.04195,-3.47021 1.2824,-7.1883 0.88165,-10.82377 0,-0.33049 -0.0802,-0.57836 -0.0802,-0.90886 0,-1.40461 0.4809,-2.80922 1.36254,-3.88334 1.68314,-2.14823 3.44643,-4.4617 5.20972,-6.77518 0.3206,-0.41312 0.40075,-0.49574 0.4809,-0.66099 3.20598,-4.70958 5.20972,-10.16277 6.01121,-15.94647 0.4809,-3.80071 0.56105,-7.84929 0.40075,-11.89788 -0.1603,-1.48723 -0.1603,-2.97447 -0.1603,-4.37908 0,-3.96596 0.3206,-7.84929 0.88165,-11.65 0.1603,-1.07412 0.40075,-1.98298 0.72134,-2.97447 1.92359,-6.27944 5.04942,-11.98051 9.3775,-16.93796 -3.12583,-0.16525 -6.09137,0.66099 -8.7363,2.31348 -0.3206,0.16525 -0.6412,0.49574 -1.04194,0.74362 -0.8015,0.74361 -1.52285,1.65248 -2.08389,2.64397 -2.56479,4.87482 -4.24793,10.16277 -5.04942,15.53334 -1.44269,10.65852 -2.08389,21.15179 -2.08389,31.64506 v 3.30496 l -19.07559,-0.24787 c 0.4809,-9.83227 1.28239,-19.8298 2.64493,-29.66207 0.56105,-7.60143 3.20599,-14.78973 7.45391,-20.98654 2.24419,-3.47022 5.20972,-6.19681 8.65615,-8.17979 4.24793,-2.14823 8.8966,-3.22235 13.70557,-3.22235 3.12583,0 6.33182,0.41312 9.29735,1.48724 4.32807,-1.48724 9.37749,-3.0571 14.42691,-4.54433 4.32808,-1.32199 8.49586,-1.90036 12.74378,-1.90036 3.60673,0 7.13331,0.41312 10.65989,1.32199 5.04942,1.15674 10.09884,2.0656 15.22841,2.64397 11.62168,1.73511 23.32352,1.90036 34.9452,0.3305 6.81271,-0.74362 13.30482,-3.38759 18.75499,-7.5188 4.88912,-4.37908 9.2172,-9.41915 12.74378,-15.0376 2.08388,-3.13972 4.48837,-5.94894 7.05315,-8.51029 3.12584,-2.80922 6.49212,-5.20532 10.09885,-7.1883 5.77076,-2.97447 12.18273,-4.4617 18.67484,-4.4617 4.16777,0 8.4157,0.66099 12.42318,1.90035 4.48837,-0.99149 9.05689,-1.56986 13.70557,-1.56986 1.92359,0 3.76703,0.0826 5.61046,0.24787 -3.44643,2.80923 -6.65241,5.53582 -9.85839,8.34505 -0.40075,3.71808 -0.72134,7.60142 -0.80149,11.40213 0.1603,3.22234 0.24044,6.44469 0.24044,9.66703 0,1.73511 0,3.55284 -0.0801,5.28794 v 1.07412 c 0,6.94043 -0.40075,13.88086 -1.2824,20.73866 -0.0801,0.661 -0.24045,1.32199 -0.48089,1.98298 -1.52285,3.0571 -4.48838,5.04008 -7.85466,5.04008 -1.60299,0 -3.20598,-0.41312 -4.56852,-1.32199 -0.9618,-0.49574 -2.00374,-0.90886 -3.12583,-0.99149 -0.1603,-0.0826 -0.24045,-0.0826 -0.40075,-0.16525 -1.04195,-0.57837 -1.60299,-1.7351 -1.68314,-2.89184 0.1603,-1.32199 0.1603,-2.64398 0,-3.96596 -0.0802,-2.89185 -0.8015,-5.78369 -2.00374,-8.51029 -1.04194,-2.7266 -1.84344,-5.53582 -2.40449,-8.34504 -2.00374,-0.82624 -3.84717,-1.73511 -5.61046,-2.7266 -3.92733,6.36206 -6.01122,13.71561 -6.09137,21.15179 l -0.1603,8.84078 c -0.0802,3.63547 -0.0802,7.27093 -0.0802,10.98902 0,-0.49575 0,-0.16525 -0.0802,0.0826 -0.3206,5.04008 -1.68314,9.9149 -4.00747,14.29398 8.4157,1.48724 16.5108,4.13121 24.20516,7.93192 l 0.0802,0.0826 c 2.80523,1.23936 5.37001,2.97447 7.69435,4.95745 0.4809,0.41312 0.9618,0.90886 1.28239,1.56986 0.0802,0 0.0802,0 0.0802,0.0826 0.72135,1.15674 1.04195,2.47872 1.04195,3.88334 0,0.66099 -0.0802,1.40461 -0.24045,1.98298 -2.08389,9.50177 -4.80897,18.50781 -8.0951,27.26597 l -0.92395,2.58201 z"
   style="stroke-width:1.13024235" /></svg>