/* XPM */
static char *foo[] = {
/* width height num_colors chars_per_pixel */
"    33    33        3            1",
/* colors */
"_ c None s backgroundToolBarColor",
"# c #5949bd",
"+ c #000000",
"_________________________________",
"__________++++++++++_____________",
"_________+#_#_#_#_#_#____________",
"________+#_#_#_#_#_#_#___________",
"_______+#_#_+++++++_#_#__________",
"_______+_#_+++++++++_#_#_________",
"_______+#_+++++++++++_#__________",
"_______+_#_+++_#_+++_#_#_________",
"_______+#_+++++_+++++_#_#________",
"_______+_#_+++_#_+++_#_#_#_______",
"_______+#_#_+_#_+++++_#_#_#______",
"_______+_#_#_#_+++++_#_####______",
"_______+#_#_#_+++++_#_#__________",
"________+#_#_+++++_#_#_#_________",
"_________+#_#_+++_#_#_#__________",
"__________+#_+++++_#_#___________",
"___________+#_#_#_#_#_#__________",
"___________+_#_#_#_#_#___________",
"___________+#_+++_#______________",
"___________+_+++++_#_____________",
"___________+#_+++_#______________",
"__________+#_#_#_#_#_____________",
"__________+_#_#_#_#_#____________",
"_________________________________"
"________+__+______+______________",
"________+__+______+______________",
"________+__+__++__+___+++________",
"________++++_+__+_+___+__+_______",
"________+__+_++++_+___+__+_______",
"________+__+_+____+___+++________",
"________+__+__++___++_+__________",
"______________________+__________",
"_________________________________",
};
