/* XPM */
static char *down[] = {
/* width height num_colors chars_per_pixel */
"    30    30        8            1",
/* colors */
". c #330099",
"+ c #888888",
"a c #aaaaaa",
"_ c None s backgroundToolBarColor",
"c c #cccccc",
"d c #eeeeee",
"e c #ffffff",
"# c black s foregroundToolBarColor",
/* pixels */
"______________________________",
"_____________aaaaa____________",
"_____________+++aa____________",
"____________a...+a____________",
"____________.+c+.+____________",
"____________.ddc.+____________",
"____________.+d+.+____________",
"____________a...a_____________",
"______________a+++____________",
"____________.....+____________",
"____________.dcc.+____________",
"____________.dcc.+____________",
"____________.dcc.+++++a_______",
"_________....dcc....+a________",
"__________.edccccd.+a_________",
"___________.edccd.+a__________",
"____________.edd.+a___________",
"_____________.e.+a____________",
"______________._a_____________",
"______________________________",
"_____#___#___________#________",
"_____##__#___________#________",
"_____#_#_#__##__#__#_#________",
"_____#__##_#__#_#__#_###______",
"_____#___#_####__##__#________",
"_____#___#_#____#__#_#________",
"_____#___#__###_#__#__###_____",
"______________________________",
"______________________________",
"______________________________"
};
