/* XPM */
static char *reload[] = {
"33 33 9 1",
"_ c None s backgroundToolBarColor",
"# c #000000 s foregroundToolBarColor",
"^ c #300098",
"a c #6064c8",
"b c #707470",
"c c #888888",
"d c #a8a8a8",
"+ c #e8ece8",
"h c #f8fcf8",
"_________________________________",
"_________________________________",
"_________________________________",
"____________dba^abd______________",
"___________c^abdba^c_____________",
"__________a^d+++++d^a____________",
"_________c^h+ba^ab++^c___________",
"________d^d+b^ddd^a+d^d__________",
"________bahb^ddddd^b+^b__________",
"________abh^bd__^ad+++ca^________",
"________^dh^d____^a+++a^dd_______",
"________^dh^b_____^a+a^dd________",
"________abhabd_____^a^dd_________",
"________ba++^bd_____add__________",
"________d^d++^bb__d^^^d__________",
"________dc^+++da^_^++c^__________",
"_________da^d++^a_^+++^d_________",
"__________dc^ab^d_^c+c^c_________",
"___________ddbadd_d^^^cc_________",
"____________dddd___dcccd_________",
"_________________________________",
"_________________________________",
"_________________________________",
"__###____________________________",
"__#__#_______#______________#____",
"__#__#_______#______________#____",
"__###____##__#__##___##___###____",
"__#__#__#__#_#_#__#_#__#_#__#____",
"__#___#_####_#_#__#__###_#__#____",
"__#___#_#____#_#__#_#__#_#__#____",
"__#___#__###_#__##___##_#_###____",
"_________________________________",
"_________________________________"
};
