/* XPM */
static char *footprint[] = {
/* width height num_colors chars_per_pixel */
"    33    33        6            1",
/* colors */
"O c #000000",
"# c #c0c0c0",
"_ c none s backgroundToolBarColor",
"b c #585858",
"c c #808080",
"d c #5848b8",
/* pixels */
"_________________________________",
"_________________________________",
"_________________________________",
"_________________________________",
"_________________dd______________",
"_________________dd_dd___________",
"____________________dd___________",
"________________ddd______________",
"________________dddd_dd__________",
"________________dddd_dd__________",
"_________________ddd_____________",
"_________________________________",
"_________dd______________________",
"_________dd_dd___________________",
"____________dd___________________",
"________ddd______________________",
"________dddd_dd__________________",
"________dddd_dd__________________",
"_________ddd_____________________",
"_________________________________",
"_________________________________",
"_________________________________",
"_________________________________",
"_____OOO_________________________",
"_____O__O_______O____O___________",
"_____O__O_______O____O___________",
"_____OOO___OO___O____O___________",
"_____O____O__O__OOO__OOO_________",
"_____O_____OOO__O____O__O________",
"_____O____O__O__O____O__O________",
"_____O_____OO_O__OO__O__O________",
"_________________________________",
"_________________________________"
};
