/* XPM */
static char *foo[] = {
/* width height num_colors chars_per_pixel */
"    33    33        8            1",
/* colors */
"# c #000000 s foregroundToolBarColor",
"+ c #300098",
"a c #888888",
"b c #a8a8a8",
"_ c None s backgroundToolBarColor",
"d c #c8ccc8",
"e c #e8ece8",
"f c #f8fcf8",
/* pixels */
"_________________________________",
"_________________________________",
"______________+__________________",
"______________++_________________",
"_________++++++f+___b++b_________",
"_________+eeeeedf+__+ee+b________",
"_________+ddddddd+a_+eb+b________",
"_________++++++d+ab_b++bb________",
"__________aaaa++ab___bbb_________",
"__________bbbb+ab________________",
"______________ab_________________",
"________fa_fa_fa_fa_fa_fa________",
"________++_++_++_++_++_++________",
"_________fadfadfadfadfadf________",
"_________++d++d++d++d++d+________",
"________fadfadfadfadfadfa________",
"________++d++d++d++d++d++________",
"________eea_eeeeeeeea_eea________",
"________+++_+++++++++_+++________",
"_________________________________",
"_________________________________",
"_________________________________",
"_________________________________",
"_________________________________",
"________##_______________________",
"_______#__#______________________",
"______#____#_###___##__#_#_______",
"______#____#_#__#_#__#_##_#______",
"______#____#_#__#_####_#__#______",
"_______#__#__#__#_#____#__#______",
"________##___###___###_#__#______",
"_____________#___________________",
"_____________#___________________"
};
