/* XPM */
static char * file[] = {
"33 33 6 1",
"_	c None s backgroundToolBarColor",
".     c #000000 s foregroundToolBarColor",
"X	c #836fff",
"+	c #7a67ee",
"@	c #6959cd",
"o     c #ff0000",
"_________________________________",
"_________________________________",
"_________.....___......._________",
"________.XXXX.___________________",
"_______.X++++.___________________",
"_______.X+....___......._________",
"_______.X+.______________________",
"_______.X+.______________________",
"_______.X+.______......._________",
"_______.X+.______________________",
"_______.X+.______________________",
"_______.X+.______......._________",
"_______.X+._.____________________",
"_______.X+._..___________________",
"_______.X+._.X.__________________",
"_______.X+...X@._____..__________",
"_______.X++XXX+@.___.oo._________",
"_______.X+++++++@._.oooo.________",
"________.++++++@.__.oooo.________",
"_________....X@.____.oo._________",
"____________.X.______..__________",
"____________..___________________",
"____________.____________________",
"_________________________________",
"______________________.__________",
"________...___________.__________",
"_______._____..__...__...________",
"_______.____.__._.__._.__________",
"_______.____.__._.__._.__________",
"_______.____.__._.__._.__________",
"________...__..__.__.__..._______",
"_________________________________",
"_________________________________"};
