/* XPM */
static char * image_name[] = {
"33 33 4 1",                  
"_      c None s backgroundToolBarColor",      
"X      c black s foregroundToolBarColor",
"8	 c #5949bd",
"9	 c #ff0000",
"_________________________________",
"_________________________________",
"________________________XXXXXX___",
"_________________________________",
"____8___________________XXXXXX___",
"___888___________________________",
"________________________XXXXXX___",
"___888___________________________",
"___888_____X______X_____XXXXXX___",
"___888____X________X_____________",
"___888___XXXXXXXXXXXX___999999___",
"___888____X________X_____________",
"___888_____X______X_____XXXXXX___",
"___888___________________________",
"________________________XXXXXX___",
"___888___________________________",
"____8___________________XXXXXX___",
"_________________________________",
"________________________XXXXXX___",
"_________________________________",
"_________________________________",
"_________________________________",
"_________________________________",
"_________________________________",
"_XXX________X_X______X___________",
"_X__X_________X______X___________",
"_X__X__X__X_X_X____XXX__XX__XXX__",
"_XXXX__X__X_X_X___X__X_X__X_X__X_",
"_X___X_X__X_X_X___X__X_XXXX_X____",
"_X___X_X__X_X_X___X__X_X____X____",
"_XXXX___XX__X__XX__XXX__XXX_X____",
"_________________________________",
"_________________________________",
};
