/* XPM */
static char * file[] = {
"33 33 6 1",
"_	c None s backgroundToolBarColor",
".     c #000000 s foregroundToolBarColor",
"X	c #836fff",
"+	c #7a67ee",
"@	c #6959cd",
"o     c #ff0000",
"_________________________________",
"_________________________________",
"_________.....___......._________",
"________.XXXX.___________________",
"_______.X++++.___________________",
"_______.X+....___......._________",
"_______.X+.______________________",
"_______.X+.______________________",
"_______.X+.______......._________",
"_______.X+.______________________",
"_______.X+.______________________",
"_______.X+.______......._________",
"_______.X+._.____________________",
"_______.X+._..___________________",
"_______.X+._.X.__......._________",
"_______.X+...X@._________________",
"_______.X++XXX+@.________________",
"_______.X+++++++@.__ooooooo______",
"________.++++++@.________________",
"_________....X@._________________",
"____________.X._____.......______",
"____________..___________________",
"____________.____________________",
"_________________________________",
"_____________.___________________",
"________...__.___________________",
"_______._____...___..__..._______",
"________...__.____.__._.__.______",
"___________._.____...._.__.______",
"_______.___._.____.____.__.______",
"________...___...__..._..._______",
"_______________________._________",
"_______________________._________"};
