/* XPM */
static char *on[] = {
/* width height num_colors chars_per_pixel */
"    8    30        9            1",
/* colors */
". c #000000",
"# c #303060",
"a c #6064c8",
"b c #686868",
"c c #808080",
"d c None s backgroundToolBarColor",
"e c #e0e4e0",
"f c #f8e8c8",
"g c #f8fcf8",
/* pixels */
"eddddddd",
"eddddddd",
"e#####cd",
"ed#aagdd",
"edd#gddd",
"eddddddd",
"eddddddd",
"edddgddd",
"egddd#dd",
"ed#ddddd",
"edddgddd",
"egddd#dd",
"ed#ddddd",
"edddgddd",
"egddd#dd",
"ed#ddddd",
"edddgddd",
"egddd#dd",
"ed#ddddd",
"edddgddd",
"egddd#dd",
"ed#ddddd",
"edddgddd",
"egddd#dd",
"ed#ddddd",
"eddddddd",
"egddd#dd",
"ed#ddddd",
"eddddddd",
"eddddddd",
};
