/* XPM */
static char *stop[] = {
/* width height num_colors chars_per_pixel */
"    33    33        4            1",
/* colors */
"_ c None s backgroundToolBarColor",
". c #cc0000",
"a c #f0f4f0",
"# c black s foregroundToolBarColor",
/* pixels */
"_________________________________",
"_________________________________",
"_________________________________",
"_________________________________",
"____________.........____________",
"___________...........___________",
"__________.............__________",
"_________..............._________",
"________.................________",
"________.aaa.aaa.aaa.aaa.________",
"________.a....a..a.a.a.a.________",
"________.aaa..a..a.a.a.a.________",
"________...a..a..a.a.aaa.________",
"________.aaa..a..aaa.a...________",
"________.................________",
"_________..............._________",
"__________.............__________",
"___________...........___________",
"____________.........____________",
"_________________________________",
"_________________________________",
"_________________________________",
"_________________________________",
"_________________________________",
"_____________#___________________",
"________###__#___________________",
"_______#_____###___##__###_______",
"________###__#____#__#_#__#______",
"___________#_#____#__#_#__#______",
"_______#___#_#____#__#_#__#______",
"________###___###__##__###_______",
"_______________________#_________",
"_______________________#_________"
};
