/* XPM */
static char * info[] = {
"33 33 4 1",
"_      c None s backgroundToolBarColor",
"o      c #5949bd",
"c      c #836fff",
"#      c black s foregroundToolBarColor",
"_________________________________",
"_______________ooo_______________",
"______________coooo______________",
"_____________coooooo_____________",
"_____________coooooo_____________",
"_____________coooooo_____________",
"______________coooo______________",
"_______________ccc_______________",
"_________________________________",
"_____________cooooo______________",
"____________coooooo______________",
"______________coooo______________",
"______________coooo______________",
"______________coooo______________",
"______________coooo______________",
"______________coooo______________",
"______________coooo______________",
"______________coooo______________",
"______________coooo______________",
"______________coooo______________",
"_____________coooooo_____________",
"____________ccccccccc____________",
"_________________________________",
"_________________________________",
"__________#________#_____________",
"__________#_______#______________",
"__________#_###__###_##__________",
"__________#_#__#__#_#__#_________",
"__________#_#__#__#_#__#_________",
"__________#_#__#__#_#__#_________",
"__________#_#__#__#__##__________",
"_________________________________",
"_________________________________"};
