/* XPM */
static char * image_name[] = {
"33 33 8 1",                  
"_      c None s backgroundToolBarColor",
".      c #B6B2B6",      
"o      c #A6A2A6",      
"O      c #000000 s foregroundToolBarColor",
"+	 c #5949bd",
"@      c #D7B68E",      
"#      c #ff0000",      
"%      c #ff0000",                   
"_________________________________",
"_____OOOOOO______________________",
"_________________________________",
"_____OOOOOO______________________",
"_________________________________",
"_____OOOOOO______________________",
"_________________________________",
"_____OOOOOO______________________",
"_________________________________",
"_____OOOOOO__+++__+___++_________",
"______________+__+_+_+___________",
"_____OOOOOO___+__+++_+_+_________",
"______________+__+_+__++_________",
"_____OOOOOO______________________",
"___________________O_____________",
"_____OOOOOO________O_____________",
"___________________O_____________",
"_____OOOOOO___O____O_____________",
"_____________O____O______________",
"_____######_OOOOOO_______________",
"_____________O___________________",
"_____OOOOOO___O__________________",
"_________________________________",
"_________________________________"
"______OOOO_O_________O___________",
"______O______________O___________",
"______O____O_OOO___OOO___________",
"______OOOO_O_O__O_O__O___________",
"______O____O_O__O_O__O___________",
"______O____O_O__O_O__O___________",
"______O____O_O__O__OOO___________",
"_________________________________",
"_________________________________",
};
