/* XPM */
static char * image_name[] = {
"33 24 16 1",
" 	c #F7F3F7",
".	c None s backgroundToolBarColor",
"X	c #000000 s foregroundToolBarColor",
"o	c #A6A2A6",
"O	c #836fff",
"+	c #969296",
"@	c #69718E",
"#	c #080408",
"$	c #000010",
"%	c #B6AEB6",
"&	c #969AAE",
"*	c #498AB6",
"=	c #AEAEB6",
"-	c #A69EA6",
";	c #8E8E96",
":	c #F7F7F7",
".................................",
".O+OO +O+O+O+O+O+O+OOO OOOX OOOX.",
".+O+O ++O+O+O+O+O+O+OO OOOX OOOX.",
".O+OO +O+O+O+O+O+O+OOX OOOX OOOX.",
".XXXXXXXXXXXXXXXXXXXXXXXXXXXXXXX.",
".X......................... OOOX.",
".X......................... OOOX.",
".X....X........   ......... OOOX.",
".X...XX..X+....   ......... OOOX.",
".X....X..+X+...   ......... OOOX.",
".X....X..+X+...   ......... OOOX.",
".X....X..X+....   ......... OOOX.",
".X....+.................... OOOX.",
".X......................... OOOX.",
".X......................... OOOX.",
".X......................... OOOX.",
".X......................... OOOX.",
".X......................... OOOX.",
".X......................... OOOX.",
".X......................... OOOX.",
".X                          OOOX.",
".XXXXXXXXXXXXXXXXXXXXXXXXXXXXXXX.",
".................................",
"................................."};
