/* XPM */
static char * image_name[] = {
"33 33 3 1",
"_	c None s backgroundToolBarColor",
"O	c #5949bd",
"#     c black s foregroundToolBarColor",
"_________________________________",
"_________________________________",
"_________________________________",
"_________________________________",
"________________________#__OO____",
"_____________________#__#_OOOO___",
"___________#__________#_#O_OOO___",
"___________##__________#OOOOO____",
"__############_____###_OOOOO_____",
"__#############______#O_OOO###___",
"__############______O_OOOO#______",
"___________##______OOOOOO__#_____",
"___________#_______OOOOO#___#____",
"___________________OOOOOO#_______",
"___________________OOOOO_#_______",
"____________________OOO__#_______",
"_________________________________",
"_________________________________",
"_________________________________",
"_________________________________",
"_________________________________",
"_________________________________",
"_________________________________",
"_________________________________",
"_____________________________#___",
"__##_________________________#___",
"_#____##__###__###___##___##_###_",
"_#___#__#_#__#_#__#_#__#_#___#___",
"_#___#__#_#__#_#__#_####_#___#___",
"_#___#__#_#__#_#__#_#____#___#___",
"__##__##__#__#_#__#__###__##__##_",
"_________________________________",
"_________________________________"};
