/* XPM */
static char *foo[] = {
/* width height num_colors chars_per_pixel */
"    33    33        5            1",
/* colors */
"_ c None s backgroundToolBarColor",
"# c #000000 s foregroundToolBarColor",
"@ c #fffbcf",
"+ c #ff1441",
"  c #ffffff",
/* pixels */
"_________________________________",
"_________________________________",
"______________ +++ ______________",
"____________   +++   ____________",
"______@@___    +++ @@@@@@________",
"_____@@@@@@@   +++@@@@@__@_______",
"_____@___ @@@  ++@@@@   __@______",
"____@@__   @@@ __@@@     _@@_____",
"____@___    @@____@      __@_____",
"____@__      _______      __@____",
"____@__     _________     __@____",
"____@__+++++_________+++++__@____",
"____@__+++++_________+++++__@____",
"____@__+++++__@@@____+++++__@____",
"____@__     __@__@@__     __@____",
"____@__      @@___@@      __@____",
"_____@__      _____      ___@____",
"_____@__       ___       ___@____",
"_____@@__      +++      ___@_____",
"______@@@@     +++     ____@_____",
"___________    +++    @____@_____",
"____________   +++   _@__@@______",
"______________ +++ ____@@@_______",
"_________________________________",
"________#__#______#______________",
"________#__#______#______________",
"________#__#__##__#___###________",
"________####_#__#_#___#__#_______",
"________#__#_####_#___#__#_______",
"________#__#_#____#___###________",
"________#__#__##___##_#__________",
"______________________#__________",
"_________________________________"
};
