/* XPM */
static char * image_name[] = {
"33 24 6 1",
"_	c None s backgroundToolBarColor",
".	c red",
"o	c #000010",
"+	c #000000",
"@	c #9898f8",
"#     c black s foregroundToolBarColor",
"_________________________________",
"_________________________________",
"____________+++__________________",
"__________+++_+++________________",
"__________+..+..+________________",
"_________++.o++.o+_______________",
"_________o..+....+_______________",
"_________++..o..o+_______________",
"__________o..._.++++_____________",
"__________+o+.++++@+__+__________",
"____________+++@+@@@++@+_________",
"____________+@@@@@@@@@@++________",
"_____________+@@@+++@@@+_________",
"_____________+@@+@+_+@@+_________",
"___________++@@+@+___+@@++_______",
"___________+@@@++____+@@@+_______",
"___________+++@+@+___+@+++_______",
"_____________+@@+@+_+@@+_________",
"_____________+@@@+++@@@+_________",
"____________+@@@@@@@@@@@+________",
"____________++@++@@+++++_________",
"_____________++_+@@+__+__________",
"________________++++_____________",
"_________________________________",
};
