/* XPM */
static char * ude_export_icon_xpm[] = {
"33 33 8 1",
" 	c None",
".	c #330099",
"+	c #AAAAAA",
"@	c #FFFFFF",
"#	c #888888",
"$	c #EEEEEE",
"%	c #CCCCCC",
"&	c #000000",
"                                 ",
"                                 ",
"               . +               ",
"              .@.#+              ",
"             .@$$.#+             ",
"            .@$%%$.#+            ",
"           .@$%%%%$.#+           ",
"          ....$%%....#+          ",
"             .$%%.#####+         ",
"             .$%%.#              ",
"             .$%%.#              ",
"             .$%%.#              ",
"             .$%%.#              ",
"             .....#              ",
"               +###              ",
"             +...+               ",
"             .#$#.#              ",
"             .$$%.#              ",
"             .#%#.#              ",
"             +...#+              ",
"              ###++              ",
"              +++++              ",
"                                 ",
"                                 ",
"  &&&&                     &     ",
"  &                        &     ",
"  &    &  & &&&   &&  &&&  &     ",
"  &&&  &  & &  & &  & &  & &&&   ",
"  &     &&  &  & &  & &    &     ",
"  &    &  & &  & &  & &    &     ",
"  &&&& &  & &&&   &&  &     &&&  ",
"            &                    ",
"            &                    "};
