/* XPM */
static char * image_name[] = {
"33 33 6 1",
"_	c None s backgroundToolBarColor",
".	c #836fff",
"o	c #000010",
"+	c #000000",
"@	c #9898f8",
"#     c black s foregroundToolBarColor",
"_________________________________",
"_________________________________",
"_________________________________",
"_________________________________",
"______________++++_______________",
"___________++_+@@+__+____________",
"___________++@+@@@++@+___________",
"__________+@@@@@@@@@@++__________",
"___________+@@@+++@@@+___________",
"___________+@@+@+_+@@+___________",
"_________++@@+@+___+@@++_________",
"_________+@@@++____+@@@+_________",
"_________+++@+@+___+@+++_________",
"___________+@@+@+_+@@+___________",
"___________+@@@+++@@@+___________",
"__________+@@@@@@@@@@@+__________",
"__________++@++@@+++++___________",
"___________++_+@@+__+____________",
"______________++++_______________",
"_________________________________",
"_________________________________",
"_________________________________",
"_________________________________",
"_________________________________",
"____________#___________###______",
"______##_##_#_#________#_________",
"______#_#_#_#_#___#_#__#_________",
"______#_#_#_##___#_#_#_###_______",
"______#_#_#_#_#__#_#_#_#_________",
"______#___#_#__#_#_#_#_#_________",
"______#___#_#__#_#___#_#_________",
"_________________________________",
"_________________________________"};
