/* XPM */
static char *reld-up[] = {
/* width height num_colors chars_per_pixel */
"    33    33       17            1",
/* colors */
"# c #252525 s foregroundToolBarColor",
"a c #330099",
"b c #4c4c4c",
"c c #555555",
"d c #6666cc",
"e c #737373",
"f c #777777",
"g c #888888",
"h c #999999",
"i c #9999ff",
"j c #aaaaaa",
"_ c None s backgroundToolBarColor",
"l c #bbbbbb",
"m c #cccccc",
"n c #e1e1e1",
"o c #eeeeee",
"p c #ffffff",
/* pixels */
"_________________________________",
"_________________________________",
"_____________jfdadfj_____________",
"____________gadfjfdag____________",
"___________dajoommmjad___________",
"__________gapofdadfmmag__________",
"_________jajofajjjadmjaj_________",
"_________fdpfajjjjjafmaf_________",
"_________dfpafj__adjommgda_______",
"_________ajpaj____admmmdajj______",
"_________gaaag_____admdajj_______",
"_________ggggg______adajj________",
"_____________________djj_________",
"_________#####_____jaaaj_________",
"________##___##____amoga_________",
"________##_________aoomaj________",
"________##_________agmgag________",
"________##_________jaaagg________",
"________##___##_____jgggj________",
"_________#####___________________",
"_________________________________",
"_________________________________",
"_________________________________",
"_________________________________",
"__####______#____________________",
"__#_________#____________________",
"__#____#__#_#_____##__###__###___",
"__####_#__#_###__#__#_#__#_#__#__",
"__#_____##__#____####_#____#__#__",
"__#____#__#_#____#____#____#__#__",
"__####_#__#__###__###_#____#__#__",
"_________________________________",
"_________________________________"
};
