/* XPM */
static char *home-up[] = {
/* width height num_colors chars_per_pixel */
"    34    30       18            1",
/* colors */
". c #000000 s foregroundToolBarColor",
"# c #252525",
"a c #330099",
"b c #4c4c4c",
"c c #555555",
"d c #6666cc",
"e c #737373",
"f c #777777",
"g c #888888",
"h c #999999",
"i c #9999ff",
"j c #aaaaaa",
"k c None s backgroundToolBarColor",
"l c #bbbbbb",
"m c #cccccc",
"n c #e1e1e1",
"o c #eeeeee",
"p c #ffffff",
/* pixels */
"kkkkkkkkkkkkkkkkkkkkkkkkkkkkkkkkkk",
"kkkkkkkkkkkkkkkkkkkkkkkkkkkkkkkkkk",
"kkkkkkkkkkkaaakkakkkkkkkkkkkkkkkkk",
"kkkkkkkkkkkapakapakkkkkkkkkkkkkkkk",
"kkkkkkkkkkkapaapmmakkkkkkkkkkkkkkk",
"kkkkkkkkkkkapapmammakkkkkkkkkkkkkk",
"kkkkkkkkkkkapmmamammakkkkkkkkkkkkk",
"kkkkkkkkkkkapmammmammakkkkkkkkkkkk",
"kkkkkkkkkkapmammmmmammakkkkkkkkkkk",
"kkkkkkkkkapmammmmmmmammakkkkkkkkkk",
"kkkkkkkkaaaammmmmmmmmaagakkkkkkkkk",
"kkkkkkkkkkapmmmaaapmmmaggkkkkkkkkk",
"kkkkkkkkkkapmmmagjpmmmagjgkkkkkkkk",
"kkkkkkkkkkapmmmagjpmmmagjkkkkkkkkk",
"kkkkkkkkkkapmmmagjpmmmagjkkkkkkkkk",
"kkkkkkkkkkapmmmagjpmmmagjkkkkkkkkk",
"kkkkkkkkkkaaaaaagjaaaaagjkkkkkkkkk",
"kkkkkkkkkkkkgggggjkkjgggjkkkkkkkkk",
"kkkkkkkkkkkkjjjjjjkkjjjjjkkkkkkkkk",
"kkkkkkkkkkkkkkkkkkkkkkkkkkkkkkkkkk",
"kkkkkkkkkkkkkkkkkkkkkkkkkkkkkkkkkk",
"kkkkkk.kkk.kkkkkkkkkkkkkkkkkkkkkkk",
"kkkkkk.kkk.kkkkkkkkkkkkkkkkkkkkkkk",
"kkkkkk.kkk.kk..kk..k..kkk..kkkkkkk",
"kkkkkk.....k.kk.k.k.kk.k.kk.kkkkkk",
"kkkkkk.kkk.k.kk.k.k.kk.k....kkkkkk",
"kkkkkk.kkk.k.kk.k.k.kk.k.kkkkkkkkk",
"kkkkkk.kkk.kk..kk.k.kk.kk...kkkkkk",
"kkkkkkkkkkkkkkkkkkkkkkkkkkkkkkkkkk",
"kkkkkkkkkkkkkkkkkkkkkkkkkkkkkkkkkk"
};
