/* XPM */
static char *dir[] = {
/* width height num_colors chars_per_pixel */
"    33    33        5            1",
/* colors */
"_ c None s backgroundToolBarColor",
"# c black s foregroundToolBarColor",
"b c #836fff",
"c c #080408",
"d c #9898f8",
/* pixels */
"_________________________________",
"_________________________________",
"_________________________________",
"_________________######__________",
"________________#dddddd#_________",
"_______________#dbbbbbbd#________",
"________#################________",
"_______cdddddddddddddddddc_______",
"_______cdbbbbbbbbbbbbbbbbc_______",
"_______cdbbbbbbbbbbbbbbbbc_______",
"_______cdbbbbbbbbbbbbbbbbc_______",
"_______cdbbbbbbbbbbbbbbbbc_______",
"_______cdbbbbbbbbbbbbbbbbc_______",
"_______cdbbbbbbbbbbbbbbbbc_______",
"_______cdbbbbbbbbbbbbbbbbc_______",
"_______cdbbbbbbbbbbbbbbbbc_______",
"_______cdbbbbbbbbbbbbbbbbc_______",
"_______ccccccccccccccccccc_______",
"_________________________________",
"_________________________________",
"_________________________________",
"_________________________________",
"_________________________________",
"_______###_______________________",
"_______#__#____________#_________",
"_______#__#____________#_________",
"_______###____##___##__#_________",
"_______#__#__#__#_#__#_###_______",
"_______#___#_#__#_#__#_#_________",
"_______#___#_#__#_#__#_#_________",
"_______#___#__##___##___##_______",
"_________________________________",
"_________________________________"
};
