/* XPM */
static char * image_name[] = {
"33 33 3 1",
"_	c None s backgroundToolBarColor",
"O	c #5949bd",
"#     c black",
"_________________________________",
"_________________________________",
"_________________________________",
"_________________________________",
"_______________#__OO_____________",
"____________#__#_OOOO____________",
"_____________#_#O_OOO____________",
"______________#OOOOO_____________",
"__________###_OOOOO______________",
"____________#O_OOO###____________",
"___________O_OOOO#_______________",
"__________OOOOOO__#______________",
"__________OOOOO#___#_____________",
"__________OOOOOO#________________",
"__________OOOOO_#________________",
"___________OOO__#________________",
"_________________________________",
"_________________________________",
"_________________________________",
"_________________________________",
"_________________________________",
"_________________________________",
"_________________________________",
"______________#__________________",
"________####__#__________________",
"________#___#_#__________________",
"________#___#_###___###__________",
"________#___#_#__#_#_____________",
"________#___#_#__#_#_###_________",
"________#___#_#__#_#___#_________",
"________####__###___###__________",
"_________________________________",
"_________________________________"};
