/* XPM */
static char * clean_xpm[] = {
"33 33 4 1",
"_	c None s backgroundToolBarColor",
".	c #ff0000",
"+	c #5949bd",
"X	c #000000 s foregroundToolBarColor",
"_________________________________",
"_______________+++_______________",
"_______________+++_______________",
"_______________+++_______________",
"____________+++++++++____________",
"_____________+++++++_____________",
"______________+++++______________",
"_______________+++_______________",
"________________+________________",
"_________________________________",
"_______________..._______________",
"______________.....______________",
"______________.....______________",
"______________.....______________",
"_______________..._______________",
"_______++++++_______++++++_______",
"________+++++_______+++++________",
"________+++++_______+++++________",
"_______++++++_______++++++_______",
"______+++++++_______+++++++______",
"_____+++++__+_______+__+++++_____",
"______+++_______________+++______",
"_______+_________________+_______",
"_________________________________",
"_________X_______________________",
"_____XXX_X_______________________",
"____X____X____XX___XX___XXX______",
"____X____X___X__X_X__X__X__X_____",
"____X____X___XXXX__XXX__X__X_____",
"____X____X___X____X__X__X__X_____",
"_____XXX__XX__XX___XX_X_X__X_____",
"_________________________________",
"_________________________________"};
