/* XPM */
static char * file[] = {
"33 33 5 1",
"_	c None s backgroundToolBarColor",
".     c #000000 s foregroundToolBarColor",
"X	c #836fff",
"+	c #7a67ee",
"@	c #6959cd",
"_________________________________",
"____________________.......______",
"_________________________________",
"________.....____________________",
"________.X+@._______.......______",
"________.X+@.____________________",
"________.X+@.____________________",
"________.X+@._______.......______",
"________.X+@.____________________",
"________.X+@.____________________",
"________.X+@._______.......______",
"________.X+@.____________________",
"________.X+@.____________________",
"_____....X+@....____.......______",
"______.XXX++++.__________________",
"_______.XX++@.___________________",
"________.@+@._______.......______",
"_________.@._____________________",
"__________.______________________",
"____________________.......______",
"_________________________________",
"_________________________________",
"____________________.......______",
"_________________________________",
"________...______________________",
"________.__._____________________",
"________.__._.__._...____________",
"________...._.__._.__.___________",
"________.__._.__._.__.___________",
"________.__._.__._.__.___________",
"________.__.__..__.__.___________",
"_________________________________",
"_________________________________"};
