/* XPM */
static char * image_name[] = {
"33 33 9 1",                  
"_      c None s backgroundToolBarColor",      
".      c #B6B2B6",      
"X      c #000010",      
"o      c #A6A2A6",      
"O      c #000000 s foregroundToolBarColor",      
"+      c #FFFBCF",      
"@      c #D7B68E",      
"#      c #836fff",
"%      c #6868f8",
"_________________________________",
"_________________________________",
"_____________OOOOOOO_____________",
"____________O_______O____________",
"____________O_______O____________",
"____________O%_____%O____________",
"____________O%%___%%O____________",
"____________O%#%%%#%O____________",
"_____________O%###%O_____________",
"______________O%#%O______________",
"_______________O%O_______________",
"_______________O%O_______________",
"_______________O%O_______________",
"______________O_%_O______________",
"_____________O__%__O_____________",
"____________O__%#%__O____________",
"____________O_%###%_O____________",
"____________O#######O____________",
"____________O#######O____________",
"____________O#######O____________",
"_____________OOOOOOO_____________",
"_________________________________",
"_________________________________",
"_________________________________",
"__OOO______________OO_O_O________",
"__O__O____________O_____O________",
"__O__O_OOO___OO__OOOO_O_O____OO__",
"__OOO__O__O_O__O__O___O_O___O__O_",
"__O____O____O__O__O___O_O___OOOO_",
"__O____O____O__O__O___O_O___O____",
"__O____O_____OO___O___O__OO__OOO_",
"_________________________________",
"_________________________________",
};
