/* XPM */
static char * file[] = {
"33 33 6 1",
"_	c None s backgroundToolBarColor",
"#	c #000000 s foregroundToolBarColor",
"X	c #836fff",
"+	c #7a67ee",
"@	c #6959cd",
"c      c #ff0000",
"_________________________________",
"_________________________________",
"_________________________________",
"__________#_________#######______",
"_________#@#_____________________",
"________#@+@#____________________",
"_______#XX++@#______ccccccc______",
"______#XXX++++#__________________",
"_____####X+@####_________________",
"________#X+@#_______#######______",
"________#X+@#____________________",
"________#X+@#____________________",
"________#X+@#_______#######______",
"________#X+@#____________________",
"________#X+@#____________________",
"________#X+@#_______#######______",
"________#X+@#____________________",
"________#X+@#____________________",
"________#####_______#######______",
"_________________________________",
"_________________________________",
"_________________________________",
"_________________________________",
"_______###_______________________",
"_______#__#______________________",
"_______#__#______________________",
"_______###__###___##__#___#______",
"_______#____#__#_#__#_#___#______",
"_______#____#____####__#_#_______",
"_______#____#____#_____#_#_______",
"_______#____#_____###___#________",
"_________________________________",
"_________________________________"
};"
