/* XPM */
static char *undisp[] = {
/* width height num_colors chars_per_pixel */
"    33    33        5            1",
/* colors */
"# c #000000 s foregroundToolBarColor",
"+ c #000088",
"a c #787c78",
"_ c None s backgroundToolBarColor",
"c c #f8fcf8",
/* pixels */
"_________________________________",
"_________________________________",
"_________________________________",
"_________________________________",
"_________________________________",
"__________++_________++__________",
"_________a++_________++a_________",
"_________+++a_aaaaa_a+++_________",
"____________###ccc###____________",
"___________#c_______c#___________",
"___________#_a#a_a#a_#___________",
"___________#_###_###_#___________",
"___________#acc_#_cca#___________",
"____________#a__c__a#____________",
"_____________#_____#_____________",
"___________a+##_#_#++a___________",
"________+a++__#___#__++a+________",
"_________++____###____++_________",
"__________+___________+__________",
"_________________________________",
"_________________________________",
"_________________________________",
"_________________________________",
"_________________________________",
"__________#______________________",
"______###_#______________________",
"_____#____#____##__###__##_______",
"_____#____#___#__#_#___#__#______",
"_____#____#___#__#_###_####______",
"_____#____#___#__#___#_#_________",
"______###__##__##__###__###______",
"_________________________________",
"_________________________________"
};
