/* XPM */
static char * image_name[] = {
"33 33 9 1",                  
"_      c None s backgroundToolBarColor",
".      c #B6B2B6",      
"X      c #000010",      
"o      c #A6A2A6",      
"O      c #000000 s foregroundToolBarColor",      
"+      c #FFFBCF",      
"@      c #D7B68E",      
"3      c #ff0000",
"%      c #6868f8",
"_________________________________",
"_________________________________",
"_________________________________",
"_________________________________",
"_________________________________",
"_________________________________",
"____________333__3_______________",
"____________333__33______________",
"____________333__333_____________",
"____________333__3333____________",
"____________333__33333___________",
"____________333__333333__________",
"____________333__33333___________",
"____________333__3333____________",
"____________333__333_____________",
"____________333__33______________",
"____________333__3_______________",
"_________________________________",
"_________________________________",
"_________________________________",
"_________________________________",
"_________________________________",
"_________________________________",
"__OOO____________________________",
"__O__O________________________O__",
"__O__O________________________O__",
"__OOO____OO___OO__OO__OOO___OOO__",
"__O__O__O__O_O___O__O_O__O_O__O__",
"__O___O_OOOO_O___O__O_O____O__O__",
"__O___O_O____O___O__O_O____O__O__",
"__O___O__OOO__OO__OO__O_____OOO__",
"_________________________________",
"_________________________________",
};

