/* XPM */
static char * file[] = {
"33 33 3 1",
"_	c None s backgroundToolBarColor",
".	c #000000 s foregroundToolBarColor",
"3     c #5949bd",
"_________________________________",
"_________________________________",
"_________________________________",
"_________________________________",
"____________3____________________",
"____________33___________________",
"____________333__________________",
"____________3333_________________",
"____________33333________________",
"____________333333_______________",
"____________3333333______________",
"____________33333333_____________",
"____________3333333______________",
"____________333333_______________",
"____________33333________________",
"____________3333_________________",
"____________333__________________",
"____________33___________________",
"____________3____________________",
"_________________________________",
"_________________________________",
"_________________________________",
"_________________________________",
"_________________________________",
"________...______________________",
"________.__._____________________",
"________.__._.__._...____________",
"________...._.__._.__.___________",
"________.__._.__._.__.___________",
"________.__._.__._.__.___________",
"________.__.__..__.__.___________",
"_________________________________",
"_________________________________"};
