/* XPM */
static char * image_name[] = {
"33 33 6 1",
"_	c None s backgroundToolBarColor",
".	c white",
"o	c #000010",
"+	c #000000",
"x	c #ff2020",
"#     c black s foregroundToolBarColor",
"_________________________________",
"______________________xxx________",
"_____######___________xxx________",
"_____________________xx.xx_______",
"_____######__________xx.xx_______",
"____________________xx...xx______",
"_____######_________xx.#.xx______",
"___________________xx..#..xx_____",
"_____######________xx..#..xx_____",
"__________________xx...#...xx____",
"_____######_______xx...#...xx____",
"_________________xx....#....xx___",
"_____######______xx.........xx___",
"________________xxxxxxxxxxxxxxx__",
"_____######______xxxxxxxxxxxxx___",
"_________________________________",
"_____######____________#_________",
"_______________________#_________",
"_____######_____#_____#__________",
"_______________#_____#___________",
"_____xxxxxx___#######____________",
"_______________#_________________",
"_____######_____#________________",
"_________________________________",
"_________________________________",
"_____####________________________",
"_____#____###__###___##__###_____",
"_____####_#__#_#__#_#__#_#__#____",
"_____#____#____#____#__#_#_______",
"_____#____#____#____#__#_#_______",
"_____####_#____#_____##__#_______",
"_________________________________",
"_________________________________"};
