/* XPM */
static char * image_name[] = {
"33 33 9 1",                  
"_      c None s backgroundToolBarColor",      
".      c #B6B2B6",      
"X      c #000010",      
"o      c #A6A2A6",      
"O      c #000000 s foregroundToolBarColor",
"+      c #FFFBCF",      
"@      c #D7B68E",      
"#      c #ff0000",      
"%      c #5949bd",
"_________________________________",
"_____OOOOOO_______%%_____________",
"_________________%%%%____________",
"_____OOOOOO______%%%%____________",
"__________________%%_____________",
"_____OOOOOO______________________",
"________________%%%%%____________",
"_____OOOOOO______%%%%____________",
"_________________%%%%____________",
"_____OOOOOO______%%%%____________",
"_________________%%%%____________",
"_____OOOOOO______%%%%____________",
"________________%%%%%%___________",
"_____OOOOOO______________________",
"___________________O_____________",
"_____OOOOOO________O_____________",
"___________________O_____________",
"_____OOOOOO___O____O_____________",
"_____________O____O______________",
"_____######_OOOOOO_______________",
"_____________O___________________",
"_____OOOOOO___O__________________",
"_________________________________",
"_________________________________",
"_______OOO____________O__________",
"_______O__O___________O__________",
"_______O__O__OO___OOO_O__________",
"_______O__O_O__O_O____O__________",
"_______O__O_OOOO_O____O__________",
"_______O__O_O____O____O__________",
"_______OOO___OO___OOO__OO________",
"_________________________________",
"_________________________________",
};
