/* XPM */
static char * file[] = {
"33 33 6 1",
"_	c None s backgroundToolBarColor",
".     c #000000 s foregroundToolBarColor",
"X	c #836fff",
"+	c #7a67ee",
"@	c #6959cd",
"c     c #ff0000",
"_________________________________",
"_________________________________",
"_________________________________",
"________.....____________________",
"________.X+@._______.......______",
"________.X+@.____________________",
"________.X+@.____________________",
"________.X+@._______.......______",
"________.X+@.____________________",
"________.X+@.____________________",
"________.X+@._______.......______",
"________.X+@.____________________",
"________.X+@.____________________",
"_____....X+@....____.......______",
"______.XXX++++.__________________",
"_______.XX++@.___________________",
"________.@+@._______ccccccc______",
"_________.@._____________________",
"__________.______________________",
"____________________.......______",
"_________________________________",
"_________________________________",
"_________________________________",
"_________________________________",
"_______________________._________",
"_______.___.___________._________",
"_______..__.__..__.__._..._______",
"_______._._._.__._.__._._________",
"_______.__.._....__..__._________",
"_______.___._.____.__._._________",
"_______.___.__..._.__.__...______",
"_________________________________",
"_________________________________"
};"
