/* XPM */
static char *back-up[] = {
/* width height num_colors chars_per_pixel */
"    34    30        8            1",
/* colors */
". c #000000 s foregroundToolBarColor",
"# c #330099",
"a c #888888",
"b c #aaaaaa",
"_ c None s backgroundToolBarColor",
"d c #cccccc",
"e c #eeeeee",
"f c #ffffff",
/* pixels */
"__________________________________",
"__________________________________",
"__________________________________",
"_____________#____________________",
"____________##____________________",
"___________#f#____________________",
"__________#fe######_b###b_________",
"_________#fedeeeee#_#aea#ab_______",
"________#feddddddd#b#eed#ab_______",
"_________#eddddddd#a#ada#ab_______",
"________ba#ed######ab###abb_______",
"_________ba#e#aaaaaa_aaabbb_______",
"__________ba##a___________________",
"___________ba#a___________________",
"____________baa___________________",
"_____________ba___________________",
"______________b___________________",
"__________________________________",
"__________________________________",
"__________________________________",
"_______....____________.__________",
"_______.___.___________.__________",
"_______.___.__..___..__.__._______",
"_______....__.__._.__._._.________",
"_______.___.__..._.____.._________",
"_______.___._.__._.__._._.________",
"_______....___.._._..__.__._______",
"__________________________________",
"__________________________________",
"__________________________________"
};
