/* XPM */
static char *begoo-icon[] = {
/* width height num_colors chars_per_pixel */
"    33    33        3            1",
/* colors */
". c #000000 s foregroundToolBarColor",
"_ c None s backgroundToolBarColor",
"c c #9898f8",
/* pixels */
"_________________________________",
"_________________________________",
"_________________________________",
"___________.__......_____________",
"__________.....____...___________",
"____...._....________.._...______",
"___.cccc......________..ccc._____",
"__.cccccc.____________.ccccc.____",
"__.cccccc.___________.ccccccc.___",
"__.cccccc.___________.ccccccc.___",
"__.cccccc.___________.ccccccc.___",
"___.cccc._____________.ccccc.____",
"____...._____________...ccc._____",
"____________________.......______",
"___________________....__________",
"_____________...____...__________",
"____________.ccc._..._.__________",
"___________.ccccc..______________",
"___________.ccccc._______________",
"___________.ccccc._______________",
"____________.ccc.________________",
"_____________..._________________",
"_________________________________",
"_________________________________",
"____...__________________._______",
"___.___._________________._______",
"___._____...___..___...__..._____",
"___._..._.__._.__.__.__._.__.____",
"___.___._._____...__.__._.__.____",
"___.___._.____.__.__...__.__.____",
"____...__._____.._._.____.__.____",
"____________________.____________",
"_________________________________"
};
