/* XPM */
static char * image_name[] = {
"33 33 8 1",
" 	c #F7F3F7",
"_	c None s backgroundToolBarColor",
"#	c #000000 s foregroundToolBarColor",
"O	c #6182B6",
"+	c #969296",
";	c #8E8E96",
".	c #836fff",
"o	c #000010",
"_________________________________",
"_O+OO +O+O+O+O+O+O+OOO OOO# OOO#_",
"_+O+O ++O+O+O+O+O+O+OO OOO# OOO#_",
"_O+OO +O+O+O+O+O+O+OO# OOO# OOO#_",
"_###############################_",
"_#_________________________ +O+#_",
"_#___________###___________ O+O#_",
"_#__________#...#__________ O+O#_",
"_#__________..#..#_________ +OO#_",
"_#__________#...#__________ O+O#_",
"_#___________##._###_______ +OO#_",
"_#_____________###_###_____ O+O#_",
"_#_____________#..#..#_____ +OO#_",
"_#____________##.o##.o#____ OOO#_",
"_#____________o..##...#____ OOO#_",
"_#____________##..o..o#____ OOO#_",
"_#_____________o..._.#_____ OOO#_",
"_#_____________#o#.#o#_____ OOO#_",
"_#_______________###_______ OOO#_",
"_#_________________________ +O+#_",
"_#                          OOO#_",
"_###############################_",
"_________________________________",
"_________________________________",
"__###_______#_____________#______",
"__#__#______#_____________#______",
"__#__#__##__#____##____##_###____",
"__#__#_#__#_###_#__#__#___#__#___",
"__#__#_####_#____###__#___#__#___",
"__#__#_#____#___#__#__#___#__#___",
"__###___##___##__##_#__##_#__#___",
"_________________________________",
"_________________________________"
};
