/* XPM */
static char * file[] = {
"33 33 6 1",
"_	c None s backgroundToolBarColor",
".	c #000000 s foregroundToolBarColor",
"X	c #836fff",
"+	c #7a67ee",
"@	c #6959cd",
"o     c #ff0000",
"_________________________________",
"_________________________________",
"_________.....___________________",
"________.XXXX.________.......____",
"_______.X++++.___________________",
"_______.X+....___________________",
"_______.X+.___________.......____",
"_______.X+.______________________",
"_______.X+.______________________",
"_______.X+.___________.......____",
"_______.X+.______________________",
"_______.X+.______________________",
"_______.X+.___________.......____",
"_______.X+._.____________________",
"_______.X+._..___________________",
"_______.X+._.X._______.......____",
"_______.X+...X@._________________",
"_______.X++XXX+@.________________",
"_______.X+++++++@._ooooooo_______",
"________.++++++@.________________",
"_________....X@._________________",
"____________.X.____......._______",
"____________..___________________",
"____________.____________________",
"_____....______________._________",
"_____._________________._________",
"_____.____._...__._..._..._______",
"_____...._._.__._._.___.__.______",
"_____.____._.__._._..._.__.______",
"_____.____._.__._.___._.__.______",
"_____.____._.__._._..._.__.______",
"_________________________________",
"_________________________________"};
