/* XPM */
static char * image_name[] = {
"33 33 5 1",
"_      c None s backgroundToolBarColor",
".      c #B6B2B6",
"!      c #777777",
"+      c #5949bd",
"#      c black s foregroundToolBarColor",
"_________________________________",
"_________________________________",
"_________________________________",
"_________________________________",
"__#_______#_______#_______#______",
"__#___#___#___#___#___#___#___#__",
"__#############################__",
"_________________________________",
"_________________________________",
"_____+__________+____________+___",
"_____++________+++__________++___",
"_____+++______+++++________+++___",
"_____++++_______+_________++++___",
"________________+__________+++___",
"_____++++_______+___________++___",
"_____+++________+____________+___",
"_____++__________________________",
"_____+___________________________",
"_________________________________",
"_________________________________",
"_________________________________",
"_________________________________",
"_________________________________",
"_________________________________",
"____#_________#___________#______",
"____#_________#___________#______",
"____#_###___###__##__###__#______",
"____#_#__#_#__#_#__#_#__#_###____",
"____#_#__#_#__#_####_#__#_#______",
"____#_#__#_#__#_#____#__#_#______",
"____#_#__#__###__###_#__#__###___",
"_________________________________",
"_________________________________"
};
