/* XPM */
static char *edit[] = {
/* width height num_colors chars_per_pixel */
"    32    30        11            1",
/* colors */
"X c #000000 s foregroundToolBarColor",
"# c #300098",
"a c #888888",
"b c #f80000",
"_ c None s backgroundToolBarColor",
"d c #c8ccc8",
"e c #e8ece8",
"f c #f8fcf8",
"+ c #000000",
". c #836fff",
"o c #000010",
/* pixels */
"________________________________",
"________________________________",
"_____________fa_fa_fa_fa_fa_fa__",
"_____________##_##_##_##_##_##__",
"______________fadfadfadfadfadf__",
"______________##d##d##d##d##d#__",
"_____________fadfadfadfadfadfa__",
"_____________##d##d##d##d##d##__",
"_____________eea_eeeeeeeea_eea__",
"_____________###_#########_###__",
"________________________________",
"_____________________X__________",
"_____________________X__________",
"_____+++_____________X__________",
"___+++.+++______X____X__________",
"___+..+..+_____X____X___________",
"__++.o++.o+___XXXXXX____________",
"__o..+.o..+____X________________",
"__++..o..o+_____X_______________",
"___o......+_____________________",
"___+o+.+++______________________",
"_____+++________________________",
"_________XXXX____X_X_X__________",
"_________X_______X___X__________",
"_________X_____XXX_X_XXX________",
"_________XXXX_X__X_X_X__________",
"_________X____X__X_X_X__________",
"_________X____X__X_X_X__________",
"_________XXXX__XXX_X__XX________",
"________________________________"
};
