/* XPM */
static char *foo[] = {
/* width height num_colors chars_per_pixel */
"    33    33        4            1",
/* colors */
"_ c None s backgroundToolBarColor",
"o c #5949bd",
"c c #836fff",
"O c black s foregroundToolBarColor",
"_________________________________",
"_________________________________",
"_________________________________",
"_________________________________",
"____________ooooooo______________",
"___________coooooooo_____________",
"__________coooooooooo____________",
"___________coo____cooo___________",
"__________coooo__coooo___________",
"___________coo___coooo___________",
"________________coooo____________",
"_______________coooo_____________",
"______________coooo______________",
"_____________coooo_______________",
"______________coo________________",
"_____________coooo_______________",
"_________________________________",
"_________________________________",
"______________ooo________________",
"_____________coooo_______________",
"______________coo________________",
"_________________________________",
"_________________________________",
"_________________________________",
"______OOO______________OO________",
"______O__O____________O__________",
"______O__O_OOO___OO__OOOO________",
"______OOO__O__O_O__O__O__________",
"______O____O____OOOO__O__________",
"______O____O____O_____O__________",
"______O____O_____OO___O__________",
"_________________________________",
"_________________________________"
};
