/* XPM */
static char *edit[] = {
/* width height num_colors chars_per_pixel */
"    32    30        8            1",
/* colors */
"X c #000000 s foregroundToolBarColor",
"# c #300098",
"a c #888888",
"b c #5949bd",
"_ c None s backgroundToolBarColor",
"d c #c8ccc8",
"e c #e8ece8",
"f c #f8fcf8",
/* pixels */
"________________________________",
"________________________________",
"_____XXXXXX__fa_fa_fa_fa_fa_fa__",
"_____________##_##_##_##_##_##__",
"_____XXXXXX___fadfadfadfadfadf__",
"______________##d##d##d##d##d#__",
"_____XXXXXX__fadfadfadfadfadfa__",
"_____________##d##d##d##d##d##__",
"_____XXXXXX__eea_eeeeeeeea_eea__",
"_____________###_#########_###__",
"_____XXXXXX_____________________",
"_____________________X__________",
"_____XXXXXX__________X__________",
"_____________________X__________",
"_____XXXXXX_____X____X__________",
"_______________X____X___________",
"_____bbbbbb___XXXXXX____________",
"_______________X________________",
"_____XXXXXX_____X_______________",
"________________________________",
"________________________________",
"________________________________",
"_________XXXX____X_X_X__________",
"_________X_______X___X__________",
"_________X_____XXX_X_XXX________",
"_________XXXX_X__X_X_X__________",
"_________X____X__X_X_X__________",
"_________X____X__X_X_X__________",
"_________XXXX__XXX_X__XX________",
"________________________________"
};
