/* XPM */
static char * image_name[] = {
"33 33 3 1",                  
"_      c None s backgroundToolBarColor",
"O      c #000000 s foregroundToolBarColor",      
"3      c #5949bd",
"_________________________________",
"_________________________________",
"____OOOOOO_______________________",
"_________________________________",
"____OOOOOO_______________________",
"_________________________________",
"____OOOOOO_______333__3__________",
"_________________333__33_________",
"____OOOOOO_______333__333________",
"_________________333__3333_______",
"____OOOOOO_______333__33333______",
"_________________333__333333_____",
"____OOOOOO_______333__33333______",
"_________________333__3333_______",
"____OOOOOO_______333__333________",
"_________________333__33_________",
"____OOOOOO_______333__3__________",
"_________________________________",
"____OOOOOO_______________________",
"_________________________________",
"____OOOOOO_______________________",
"_________________________________",
"_________________________________",
"_________________________________",
"__OOO______________OO_O_O________",
"__O__O____________O_____O________",
"__O__O_OOO___OO__OOOO_O_O____OO__",
"__OOO__O__O_O__O__O___O_O___O__O_",
"__O____O____O__O__O___O_O___OOOO_",
"__O____O____O__O__O___O_O___O____",
"__O____O_____OO___O___O__OO__OOO_",
"_________________________________",
"_________________________________",
};
