/* XPM */
static char * ude_import_icon_xpm[] = {
"33 33 8 1",
" 	c None",
".	c #330099",
"+	c #888888",
"@	c #EEEEEE",
"#	c #CCCCCC",
"$	c #AAAAAA",
"%	c #FFFFFF",
"&	c #000000",
"                                 ",
"                                 ",
"             .....+              ",
"             .@##.+              ",
"             .@##.+              ",
"             .@##.+              ",
"             .@##.+              ",
"             .@##.+++++$         ",
"          ....@##....+$          ",
"           .%@####@.+$           ",
"            .%@##@.+$            ",
"             .%@@.+$             ",
"              .%.+$              ",
"               . $               ",
"              $$$$$              ",
"              +++$$              ",
"             $...+$              ",
"             .+#+.+              ",
"             .@@#.+              ",
"             .+@+.+              ",
"             $...$               ",
"               $+                ",
"                                 ",
"                                 ",
"    &                      &     ",
"    &                      &     ",
"    &  &&&  &&&   &&  &&&  &     ",
"    & & & & &  & &  & &  & &&&   ",
"    & & & & &  & &  & &    &     ",
"    & & & & &  & &  & &    &     ",
"    & & & & &&&   &&  &     &&&  ",
"            &                    ",
"            &                    "};
