/* XPM */
static char *up[] = {
/* width height num_colors chars_per_pixel */
"    30    30        8           1",
/* colors */
". c #330099",
"+ c #888888",
"a c #aaaaaa",
"_ c None s backgroundToolBarColor",
"c c #cccccc",
"d c #eeeeee",
"e c #ffffff",
"# c black s foregroundToolBarColor",
/* pixels */
"______________________________",
"______________._a_____________",
"_____________.e.+a____________",
"____________.edd.+a___________",
"___________.edccd.+a__________",
"__________.edccccd.+a_________",
"_________....dcc....+a________",
"____________.dcc.+++++a_______",
"____________.dcc.+____________",
"____________.dcc.+____________",
"____________.....+____________",
"______________a+++____________",
"____________a...a_____________",
"____________.+d+.+____________",
"____________.ddc.+____________",
"____________.+c+.+____________",
"____________a...+a____________",
"_____________+++aa____________",
"_____________aaaaa____________",
"______________________________",
"___________#___#______________",
"___________#___#______________",
"___________#___#_###__________",
"___________#___#_#__#_________",
"___________#___#_#__#_________",
"____________###__###__________",
"_________________#____________",
"_________________#____________",
"______________________________",
"______________________________",
};
