/* XPM */
static char *show[] = {
/* width height num_colors chars_per_pixel */
"    33    33        9            1",
/* colors */
". c black s foregroundToolBarColor",
"# c #303060",
"a c #6064c8",
"b c #808080",
"c c #9898f8",
"_ c None s backgroundToolBarColor",
"e c #f86430",
"f c #f8fc00",
"g c #f8fcf8",
/* pixels */
"_________________________________",
"_________________________________",
"_________________g_g_g___________",
"________________f_gfg_g_f________",
"_______________g_fgggfgg_g_______",
"______________g_ggfffgfgff_______",
"_______________gfffefefff_g______",
"______________b____fefefgg_______",
"______________caaaacfbfffgf______",
"______________acga#.cfefgf_______",
"_____________acgcaa#a_fffgg______",
"__________##_.aaa##a#_ffgf_______",
"_________a_#ac_a##aa#_ffgg_______",
"_________#acg_a#.#.#a_g_f_f______",
"________#cggcaa#..#abg_g_g_______",
"______#aggcaaa#.abbb_cbbcbc______",
"_____acgcaaa#.a______abbbbb______",
"_____#.aaa#.a____ca#a#aabbc______",
"_____a#.a.ab__caaa#abc___________",
"_____c.#.bbbbbbbc________________",
"_________________________________",
"_________________________________",
"_________________________________",
"_________________________________",
"___________._____________________",
"______...__._____________________",
"_____._____...___..__.___._______",
"______...__.__._.__._.___._______",
"_________._.__._.__._._._._______",
"_____.___._.__._.__._._._._______",
"______...__.__.__..___._.________",
"_________________________________",
"_________________________________"
};
