/* XPM */
static char * file[] = {
"33 33 7 1",
"_	c None s backgroundToolBarColor",
".	c #000000 s foregroundToolBarColor",
"-	c #777777",
"X	c #836fff",
"+	c #7a67ee",
"@	c #6959cd",
"o     c #ff0000",
"_________________________________",
"_________________________________",
"_________.....___________________",
"________.XXXX.______.......______",
"_______.X++++.___________________",
"_______.X+....___________________",
"_______.X+._________.......______",
"_______.X+.______________________",
"_______.X+.______________________",
"_______.X+._________.......______",
"_______.X+.______________________",
"_______.X+.______________________",
"_______.X+._________.......______",
"_______.X+._.____________________",
"_______.X+._..___________________",
"_-----_.X+._.X._----------------_",
"_______.X+...X@._________________",
"_______.X++XXX+@.________________",
"_______.X+++++++@.__ooooooo______",
"________.++++++@.________________",
"_________....X@._________________",
"____________.X._____.......______",
"____________..___________________",
"____________.____________________",
"_________________.______.________",
"______.___.______.______.________",
"______.___._...__...__._.________",
"______.___._.__._.____._.________",
"______.___._.__._.____._.________",
"______.___._.__._.____._.________",
"_______...._.__.__..._.__..______",
"_________________________________",
"_________________________________"};
