/* XPM */
static char *browse[] = {
/* width height num_colors chars_per_pixel */
"    33    33        5            1",
/* colors */
"_ c None s backgroundToolBarColor",
"# c #000000 s foregroundToolBarColor",
"a c #5848b8",
"b c #f8fcf8",
"c c #787c78",
/* pixels */
"_________________________________",
"_________#_______________________",
"_________#__________aaa__________",
"_________#_________abbaa_________",
"_________########__abbaac________",
"_________#_________aaaaac________",
"_________#__________aaacc________",
"_________#___________ccc_________",
"_________#_______________________",
"_________#__________aaa__________",
"_________#_________abbaa_________",
"_________#_________abbaac________",
"_________########__aaaaac________",
"_________#__________aaacc________",
"_________#___________ccc_________",
"_________#_______________________",
"_________#__________aaa__________",
"_________#_________abbaa_________",
"_________#_________abbaac________",
"_________########__aaaaac________",
"____________________aaacc________",
"_____________________ccc_________",
"_________________________________",
"__###____________________________",
"__#__#___________________________",
"__#__#___________________________",
"__###___###___##__#___#_###__##__",
"__#__#__#__#_#__#_#___#_#___#__#_",
"__#___#_#____#__#_#_#_#_###_####_",
"__#___#_#____#__#_#_#_#___#_#____",
"__####__#_____##___#_#__###__###_",
"_________________________________",
"_________________________________"
};
