/* XPM */
static char * file[] = {
"33 33 6 1",
"_	c None s backgroundToolBarColor",
".	c #000000 s foregroundToolBarColor",
"X	c #836fff",
"+	c #7a67ee",
"@	c #6959cd",
"o     c #ff0000",
"_________________________________",
"_________________________________",
"_________.....___________________",
"________.XXXX.______.......______",
"_______.X++++.___________________",
"_______.X+....___________________",
"_______.X+._________.......______",
"_______.X+.______________________",
"_______.X+.______________________",
"_______.X+._________.......______",
"_______.X+.______________________",
"_______.X+.______________________",
"_______.X+._________.......______",
"_______.X+._.____________________",
"_______.X+._..___________________",
"_______.X+._.X._____.......______",
"_______.X+...X@._________________",
"_______.X++XXX+@.________________",
"_______.X+++++++@.__ooooooo______",
"________.++++++@.________________",
"_________....X@._________________",
"____________.X._____.......______",
"____________..___________________",
"____________.____________________",
"_______________________._________",
"_______.___.___________._________",
"_______..__.__..__.__._..._______",
"_______._._._.__._.__._._________",
"_______.__.._....__..__._________",
"_______.___._.____.__._._________",
"_______.___.__..._.__.__...______",
"_________________________________",
"_________________________________"};
