/* XPM */
static char * image_name[] = {
"33 33 6 1",
"_	c None s backgroundToolBarColor",
".	c #836fff",
"o	c #000010",
"+	c #000000",
"@	c #9898f8",
"#     c black s foregroundToolBarColor",

"_________________________________",
"_________________________________",
"_________________________________",
"_________________________________",
"_____________________++++________",
"__________________++_+@@+__+_____",
"__________________++@+@@@++@+____",
"_________________+@@@@@@@@@@++___",
"__________#_______+@@@+++@@@+____",
"__________##______+@@+@+_+@@+____",
"__###########___++@@+@+___+@@++__",
"__############__+@@@++____+@@@+__",
"__###########___+++@+@+___+@+++__",
"__________##______+@@+@+_+@@+____",
"__________#_______+@@@+++@@@+____",
"_________________+@@@@@@@@@@@+___",
"_________________++@++@@+++++____",
"__________________++_+@@+__+_____",
"_____________________++++________",
"_________________________________",
"_________________________________",
"_________________________________",
"_________________________________",
"_________________________________",
"_____####______#_________________",
"_____#_________#_________________",
"_____#____###__###_###__#__#_____",
"_____####_#__#_#___#__#_#__#_____",
"_____#____#__#_#___#____#__#_____",
"_____#____#__#_#___#_____###_____",
"_____####_#__#__##_#_______#_____",
"_________________________##______",
"_________________________________"};
